<svg width="32" height="32" viewBox="0 0 32 32" fill="none" xmlns="http://www.w3.org/2000/svg">
<path d="M5.33329 9.33335H2.66663M5.33329 14.6667H2.66663M7.99993 22V24C7.99993 26.9455 10.3877 29.3333 13.3333 29.3333C16.2788 29.3333 18.6666 26.9455 18.6666 24L18.6666 16C18.6666 13.7909 20.4575 12 22.6667 12C24.8758 12.0001 26.6666 13.7909 26.6666 16V16.6667M28.9493 25.3968L26.7838 21.4154C26.7333 21.3226 26.6 21.3226 26.5495 21.4154L24.3839 25.3968C24.1402 25.824 24 26.325 24 26.8609C24 28.4241 25.1939 29.6914 26.6666 29.6914C28.1394 29.6914 29.3333 28.4241 29.3333 26.8609C29.3333 26.325 29.193 25.824 28.9493 25.3968ZM10.4662 4.00002H10.6666C12.1394 4.00002 13.3333 5.19393 13.3333 6.66669V17.3334C13.3333 18.8061 12.1394 20 10.6666 20H10.6314C10.4425 21.0611 9.51532 21.8667 8.39996 21.8667H7.59996C6.4846 21.8667 5.5574 21.0611 5.36848 20H5.33329C3.86053 20 2.66663 18.8061 2.66663 17.3334V6.66669C2.66663 5.19393 3.86053 4.00002 5.33329 4.00002H5.53376C5.88949 3.21375 6.68084 2.66669 7.59996 2.66669H8.39996C9.31908 2.66669 10.1104 3.21375 10.4662 4.00002Z" stroke="#F9F9F9" stroke-width="1.5" stroke-linecap="round" stroke-linejoin="round"/>
</svg>
