<svg width="32" height="32" viewBox="0 0 32 32" fill="none" xmlns="http://www.w3.org/2000/svg">
<path d="M22.6667 28V26.6666C22.6667 25.1939 21.4728 24 20 24M9.33333 28V26.6666C9.33333 25.1939 10.5272 24 12 24M12 24H20M12 24H6.66667C5.19391 24 4 22.8061 4 21.3333V7.99998C4 6.52722 5.19391 5.33331 6.66667 5.33331H25.3333C26.8061 5.33331 28 6.52722 28 7.99998V21.3333C28 22.8061 26.8061 24 25.3333 24H20M9.33333 14.6666H13.037L14.5185 10.6666L17.3333 18.6666L19.1111 14.6666H22.6667" stroke="#F9F9F9" stroke-width="1.5" stroke-linecap="round" stroke-linejoin="round"/>
</svg>
