<svg width="32" height="32" viewBox="0 0 32 32" fill="none" xmlns="http://www.w3.org/2000/svg">
<path d="M8.91502 8.91508L4.49674 13.3334C2.05659 15.7735 2.05659 19.7298 4.49674 22.1699C6.93688 24.6101 10.8931 24.4402 13.3333 22M8.91502 8.91508L13.3333 4.4968C15.7734 2.05665 19.7297 2.05665 22.1698 4.4968C24.61 6.93695 24.4921 10.9254 22.052 13.3655M8.91502 8.91508L15.6764 15.6765M13.3333 22C13.4988 23.7946 14.3025 25.6162 15.6764 26.9902C18.8006 30.1144 23.866 30.1144 26.9901 26.9902C30.1143 23.866 30.1143 18.8007 26.9901 15.6765C25.611 14.2974 23.8536 13.527 22.052 13.3655M13.3333 22C13.1225 19.714 13.9262 17.4267 15.6764 15.6765M22.052 13.3655C19.7722 13.1611 17.4215 13.9314 15.6764 15.6765M6.93329 16C5.95723 16.9761 5.95723 18.2397 6.93329 19.2157M13.3333 21.3334H29.3333" stroke="#F9F9F9" stroke-width="1.5" stroke-linecap="round" stroke-linejoin="round"/>
</svg>
