<svg width="32" height="32" viewBox="0 0 32 32" fill="none" xmlns="http://www.w3.org/2000/svg">
<path d="M10.6666 5.33333H7.99992C6.52716 5.33333 5.33325 6.52724 5.33325 8V26.6667C5.33325 28.1394 6.52716 29.3333 7.99992 29.3333H23.9999C25.4727 29.3333 26.6666 28.1394 26.6666 26.6667V8C26.6666 6.52724 25.4727 5.33333 23.9999 5.33333H21.3333M10.6666 5.33333V6.66667C10.6666 8.13943 11.8605 9.33334 13.3333 9.33334H18.6666C20.1393 9.33334 21.3333 8.13943 21.3333 6.66667V5.33333M10.6666 5.33333C10.6666 4.22876 11.562 3.33334 12.6666 3.33334H13.2918C13.3187 3.33334 13.3449 3.3246 13.3664 3.30844L13.695 3.06202C15.0279 2.06233 16.8863 2.16431 18.1018 3.30387C18.122 3.3228 18.1487 3.33334 18.1763 3.33334H19.0401C20.3066 3.33334 21.3333 4.06685 21.3333 5.33333M10.6666 18.6667H13.037L14.5184 14.6667L17.3333 22.6667L19.111 18.6667H21.3333" stroke="#F9F9F9" stroke-width="1.5" stroke-linecap="round" stroke-linejoin="round"/>
</svg>
