<svg width="32" height="32" viewBox="0 0 32 32" fill="none" xmlns="http://www.w3.org/2000/svg">
<path d="M6.99631 24.9821L2.66675 29.3116M6.99631 24.9821L8.88309 26.8825C9.46814 27.4718 10.4167 27.4718 11.0017 26.8825L27.0379 11.1972M6.99631 24.9821L4.85269 22.8229C4.26764 22.2336 4.26764 21.2782 4.85269 20.6889L7.92844 17.6006M27.697 4.31494L23.9511 8.08804M27.697 4.31494L26.0606 2.66669M27.697 4.31494L29.3334 5.9632M23.9511 8.08804L27.0379 11.1972M23.9511 8.08804L20.6819 4.79517M14.6824 15.3334L12.4299 13.0808M12.4299 13.0808L16.9313 8.56101M12.4299 13.0808L7.92844 17.6006M20.6819 4.79517L19.4574 3.56175M20.6819 4.79517L16.9313 8.56101M27.0379 11.1972L28.2392 12.4072M10.1318 19.8039L7.92844 17.6006M19.2331 10.8628L16.9313 8.56101" stroke="#F9F9F9" stroke-width="1.5" stroke-linecap="round" stroke-linejoin="round"/>
</svg>
